<mxfile host="65bd71144e">
    <diagram id="LGxruNQ7EmTfOfuxRugA" name="Page-1">
        <mxGraphModel dx="3343" dy="1890" grid="1" gridSize="10" guides="1" tooltips="1" connect="1" arrows="1" fold="1" page="1" pageScale="1" pageWidth="1200" pageHeight="1920" math="0" shadow="0">
            <root>
                <mxCell id="0"/>
                <mxCell id="1" parent="0"/>
                <mxCell id="2" value="" style="rounded=0;whiteSpace=wrap;html=1;fillColor=#000000;strokeColor=#6c8ebf;gradientColor=#4D4D4D;gradientDirection=north;movable=1;resizable=1;rotatable=1;deletable=1;editable=1;connectable=1;flipH=1;flipV=0;" parent="1" vertex="1">
                    <mxGeometry width="1080" height="1920" as="geometry"/>
                </mxCell>
                <mxCell id="3" value="" style="rounded=0;whiteSpace=wrap;html=1;fillColor=#f5f5f5;gradientDirection=north;fontColor=#333333;strokeColor=#666666;flipH=1;flipV=1;" parent="1" vertex="1">
                    <mxGeometry x="10" y="10" width="1060" height="330" as="geometry"/>
                </mxCell>
                <mxCell id="4" value="" style="rounded=0;whiteSpace=wrap;html=1;fillColor=#f5f5f5;gradientDirection=north;fontColor=#333333;strokeColor=#666666;" parent="1" vertex="1">
                    <mxGeometry x="10" y="460" width="1060" height="180" as="geometry"/>
                </mxCell>
                <mxCell id="5" value="" style="rounded=0;whiteSpace=wrap;html=1;fillColor=#f5f5f5;gradientDirection=north;fontColor=#333333;strokeColor=#666666;" parent="1" vertex="1">
                    <mxGeometry x="10" y="720" width="1060" height="180" as="geometry"/>
                </mxCell>
                <mxCell id="6" value="" style="rounded=0;whiteSpace=wrap;html=1;fillColor=#f5f5f5;gradientDirection=north;fontColor=#333333;strokeColor=#666666;" parent="1" vertex="1">
                    <mxGeometry x="10" y="960" width="1060" height="180" as="geometry"/>
                </mxCell>
                <mxCell id="7" value="" style="rounded=0;whiteSpace=wrap;html=1;fillColor=#f5f5f5;gradientDirection=north;fontColor=#333333;strokeColor=#666666;" parent="1" vertex="1">
                    <mxGeometry x="10" y="1240" width="1060" height="180" as="geometry"/>
                </mxCell>
                <mxCell id="8" value="" style="ellipse;whiteSpace=wrap;html=1;aspect=fixed;fillColor=#d5e8d4;gradientDirection=north;strokeColor=#82b366;" parent="1" vertex="1">
                    <mxGeometry x="860" y="1670" width="200" height="200" as="geometry"/>
                </mxCell>
                <mxCell id="9" value="" style="ellipse;whiteSpace=wrap;html=1;aspect=fixed;fillColor=#d5e8d4;gradientDirection=north;strokeColor=#82b366;" parent="1" vertex="1">
                    <mxGeometry x="30" y="1670" width="200" height="200" as="geometry"/>
                </mxCell>
            </root>
        </mxGraphModel>
    </diagram>
</mxfile>